# xmcd
#
# Track frame offsets: 
#        150
#        27770
#        47727
#        63280
#        81555
#        99525
#        117927
#        137160
#        155642
#        178962
#
# Disc length: 2567 seconds
#
# Revision: 2
# Processed by: cddbd v1.5.2PL0 Copyright (c) Steve Scherf et al.
# Submitted via: ExactAudioCopyFreeDBPlugin 1.0
#
DISCID=8a0a050a
DTITLE=Various Artist - ASIA21 - Rumba Chacha Bebop
DYEAR=1900
DGENRE=Pop
TTITLE0=Thai Thao - Co vuon len
TTITLE1=Kieu Nga - Goi anh mot lan
TTITLE2=Thy Van - Khi biet yeu
TTITLE3=Duy Quang - Cuoc tinh da xa
TTITLE4=Trung Hanh - Ben dong song xua
TTITLE5=Thanh Mai - Nang xanh
TTITLE6=Kieu Nga - Cuoc tinh thoang bay
TTITLE7=Trong Nghia and Ngoc Lan - Tien nu Jamaica
TTITLE8=Ngoc Lan - Tan tac
TTITLE9=Thuy Vi - Y O A
EXTD=
EXTT0=
EXTT1=
EXTT2=
EXTT3=
EXTT4=
EXTT5=
EXTT6=
EXTT7=
EXTT8=
EXTT9=
PLAYORDER=
